<svg xmlns="http://www.w3.org/2000/svg" viewBox="0 0 1280 1280" width="512" height="512">
  <!-- Source alpha contour: logo.png sha256=17a309e64695144e6144526a31c5c628eeba2180cab5401141d710d5d79675b7; threshold=127; tolerance=0.2 source px; 5 closed contours. -->
  <path transform="translate(70.4 70.4) scale(0.89)" d="M378.5,205.44L372.5,206.35L368.5,207.35L364.5,208.45L359.5,210.32L350.5,215.06L345.5,218.29L342.78,220.5L337.5,225.17L333.23,229.5L325.07,239.5L318.25,249.5L309.21,265.5L307.16,269.5L303.5,278.44L299.2,287.5L293.39,302.5L287.33,319.5L283.75,331.5L281.19,338.5L279.09,345.5L274.95,361.5L269.25,386.5L266.4,403.5L263.07,426.5L261.33,444.5L260.86,445.5L255.29,451.5L234.22,477.5L213.25,506.5L207.65,515.5L202.22,523.5L196.11,533.5L176.5,567.81L172.5,576.36L168.25,584.5L164.5,593.15L160.12,601.5L146.15,634.5L138.28,655.5L131.17,677.5L130.82,679.5L125.13,698.5L117.23,734.5L116.74,739.5L115.06,749.5L112.23,775.5L111.77,794.5L112.32,817.5L113.92,832.5L117.19,853.5L120.97,869.5L126.35,887.5L132.45,903.5L139.06,918.5L145.99,931.5L156.23,948.5L163.48,958.5L177.19,975.5L187.5,985.96L201.5,998.82L215.5,1009.78L234.5,1022.77L251.58,1032.5L272.5,1042.88L289.5,1049.73L311.5,1057.9L332.5,1063.87L364.5,1071.94L372.5,1073.4L382.5,1075.78L392.5,1077.2L401.5,1078.98L427.5,1082.67L445.5,1084.88L451.5,1085.24L463.5,1086.89L496.5,1089.86L526.5,1091.82L571.5,1093.94L614.5,1094.79L653.5,1094.79L692.5,1094.18L720.5,1093.27L749.5,1091.89L784.5,1089.66L804.5,1087.77L815.5,1086.32L821.5,1085.94L861.5,1081L876.5,1078.92L888.5,1076.82L917.5,1070.93L935.5,1066.52L953.5,1061.67L978.5,1053.61L1000.5,1044.76L1014.5,1038.6L1024.5,1033.6L1045.5,1021.8L1065.5,1007.73L1080.5,995.78L1095.5,981.76L1102.5,974.2L1113.96,960.5L1122.76,948.5L1131.7,934.5L1139.9,919.5L1147.86,902.5L1152.04,891.5L1157.95,873.5L1162.83,853.5L1166.87,826.5L1167.86,813.5L1168.03,806.5L1167.79,779.5L1164.92,751.5L1161.86,732.5L1156.87,709.5L1153.5,696.5L1150.25,686.5L1147.82,677.5L1143.35,664.5L1142.98,662.5L1140.69,655.5L1134.83,639.5L1130.94,630.5L1126.98,619.5L1122.5,609.4L1119.9,602.5L1115.48,593.5L1110.76,582.5L1107.18,575.5L1103.7,567.5L1097.98,556.5L1092.71,545.5L1089.22,539.5L1082.57,526.5L1068.55,502.5L1059.87,488.5L1056.26,483.5L1045.82,467.5L1031.95,448.5L1030.7,434.5L1027.83,410.5L1022.97,380.5L1020.75,368.5L1015.86,345.5L1008.9,318.5L1003.81,302.5L997.91,285.5L994.8,277.5L989.09,264.5L981.82,250.5L979.5,246.61L971.7,235.5L966.86,229.5L961.5,224.27L955.5,219.19L946.5,213.07L942.5,210.98L936.38,208.5L932.5,207.3L927.5,206.22L919.5,205.28L914.5,205.12L902.5,206.28L893.5,208.26L884.5,211.34L875.5,215.11L867.5,219.32L857.5,225.16L848.5,231.13L829.85,245.5L811.5,262.43L792.37,282.5L782.15,294.5L771.32,307.5L755.1,328.5L750.5,335.03L749.5,335.71L748.5,335.73L737.5,333.26L724.5,330.98L703.5,328.31L693.5,327.33L670.5,326.19L645.5,326.06L634.5,326.25L604.5,328.29L570.5,332.26L562.5,333.88L549.5,335.91L547.5,336.56L546.5,336.16L545.88,335.5L531.09,316.5L524.86,307.5L515.34,295.5L508.91,286.5L491.27,265.5L486.78,260.5L472.17,245.5L462.5,237.08L451.5,228.21L440.5,221.12L430.5,215.4L420.5,211.03L413.17,208.5L404.5,206.35L395.5,205.15L384.5,204.98L378.5,205.44Z M385.5,258.45L382.5,259.21L379.93,260.5L377.5,262.12L374.5,264.83L370.31,269.5L363.17,280.5L359.39,287.5L350.11,307.5L342.01,328.5L332.35,358.5L329.1,370.5L324.28,390.5L321.14,407.5L318.37,425.5L314.93,458.5L313.76,463.5L312.66,466.5L310.68,470.5L306.73,476.5L286.31,500.5L268.42,523.5L249.28,551.5L245.76,557.5L241.13,564.5L231.33,581.5L224.85,594.5L221.34,600.5L212.31,618.5L206.98,631.5L203.14,639.5L198.96,650.5L196.3,656.5L191.48,669.5L183.35,693.5L178.37,711.5L177.85,714.5L177.39,715.5L176.88,718.5L174.24,728.5L171.45,741.5L168.86,761.5L168.05,765.5L167.24,773.5L166.41,791.5L167.19,816.5L169.26,832.5L173.14,851.5L176.24,863.5L180.01,874.5L185.41,887.5L193.29,903.5L198.42,912.5L211.21,930.5L222.5,943.68L228.24,949.5L237,957.5L249.5,967.67L270.5,981.75L274.5,984.02L295.5,994.5L315.5,1002.8L323.5,1005.76L332.5,1008.63L360.5,1016.6L387.5,1022.63L398.5,1024.78L430.5,1029.58L464.5,1033.87L504.5,1037.54L521.5,1038.69L533.5,1039.08L540.5,1039.79L550.5,1040.09L560.5,1040.87L581.5,1041.21L590.5,1041.78L608.5,1042.17L629.5,1042.29L684.5,1041.86L698.5,1041.14L713.5,1040.92L770.5,1037.67L785.5,1036.52L822.5,1032.76L872.5,1025.8L890.5,1022.61L904.5,1019.25L917.5,1016.58L953.5,1006L962.5,1002.72L981.5,994.77L1001.5,984.9L1015.5,976.78L1030.5,966.56L1041.5,957.55L1050.29,949.5L1058.5,941.05L1067.8,930.5L1074.71,921.5L1080.73,912.5L1087.65,900.5L1094.7,886.5L1100.81,871.5L1103.82,862.5L1106,854.5L1109.65,837.5L1111.91,821.5L1112.65,812.5L1113.21,798.5L1112.97,785.5L1111.79,769.5L1108.76,748.5L1104.85,728.5L1104.14,726.5L1101.61,715.5L1097.27,701.5L1095.5,694.5L1090.17,679.5L1088.8,674.5L1081.68,654.5L1077.32,644.5L1074.79,637.5L1058.6,600.5L1055.31,594.5L1044.74,572.5L1029.5,544.61L1019.78,528.5L1013.16,518.5L1007.69,509.5L998.3,496.5L992.5,487.59L984.28,476.5L982.48,473.5L980.26,468.5L978.16,461.5L977.32,456.5L974.59,427.5L969.7,394.5L962.86,358.5L960.18,349.5L955.71,331.5L952.06,319.5L947.61,306.5L941.78,292.5L936.72,281.5L932.89,274.5L928.76,268.5L925.5,264.5L920.5,260.34L917.5,259.13L913.5,258.81L910.5,259.16L906.5,260.2L901.5,262.05L891.5,267.23L887.5,269.86L873.5,280.36L868.5,284.35L848.86,302.5L832.2,320.5L816.07,339.5L788.72,374.5L783.5,380.44L779.5,383.92L776.5,386L772.5,387.93L767.5,389.66L760.5,390.79L754.5,390.72L748.5,389.89L725.5,385.22L701.5,382.04L687.5,380.71L673.5,379.81L648.5,379.27L640.5,379.35L624.5,380.14L598.5,382.3L575.5,385.23L551.5,389.73L544.5,390.74L539.5,390.97L535.5,390.76L530.5,389.85L524.5,387.96L519.5,385.76L516.5,383.88L511.59,379.5L503.28,370.5L465.64,320.5L456.34,309.5L451.71,303.5L439.65,290.5L431.5,282.42L414.5,268.39L405.5,263.05L398.5,260.13L393.5,258.72L388.5,258.09L385.5,258.45Z M431.5,552.33L426.5,553.33L422.52,554.5L416.5,557.09L410.79,560.5L405.5,564.27L400,569.5L392.3,579.5L386.48,590.5L384.15,596.5L382.1,603.5L380.15,614.5L379.79,626.5L380.24,633.5L381.24,638.5L383,645.5L385.17,651.5L390.09,660.5L393.5,665.08L397.66,669.5L401.5,672.55L406.5,675.63L411.5,677.79L415.5,679.11L417.5,679.67L423.5,680.48L428.5,680.44L434.5,679.69L440.5,678.08L445.5,675.98L451.5,672.65L455.5,669.97L459.55,666.5L466.08,659.5L469.63,654.5L472.69,649.5L475.69,643.5L478.88,635.5L481.02,627.5L482.1,620.5L482.9,612.5L482.94,606.5L482.13,597.5L479.69,586.5L477.84,581.5L474.71,575.5L471.61,570.5L467.74,565.5L464.5,562.3L460.5,559.35L456.5,557.02L450.5,554.34L447.5,553.29L442.5,552.15L436.5,551.94L431.5,552.33Z M836.5,552.35L831.5,553.33L827.5,554.81L819.5,559.19L814.5,562.91L811.86,565.5L809.41,568.5L802.5,580.73L801.27,583.5L799.11,590.5L797.97,596.5L797.16,603.5L796.98,610.5L797.3,617.5L797.89,622.5L799.05,628.5L800.1,632.5L803.34,641.5L808.16,651.5L813.11,658.5L816.5,662.49L820.53,666.5L824.5,669.89L828.5,672.72L834.5,675.97L839.5,677.98L845.5,679.69L854.5,680.55L862.5,679.67L870.5,677.12L876.5,673.73L881.5,669.93L885.05,666.5L887.57,663.5L890.94,658.5L894.81,651.5L897.01,645.5L898.02,641.5L899.85,631.5L900.05,623.5L899.83,615.5L898.04,604.5L896.76,599.5L894.22,593.5L893.67,591.5L889.69,583.5L882.95,573.5L878.86,568.5L875.5,565.22L872.5,562.84L865.5,558.21L858.5,554.89L854.42,553.5L847.5,552.09L839.5,552.03L836.5,552.35Z M634.5,649.29L631.5,650.25L627.5,652.45L625.5,654.03L623.15,656.5L615.68,668.5L611.15,674.5L600.78,690.5L592.96,701.5L589.5,704.92L585.5,706.89L581.5,706.86L578.5,705.89L574.5,703.73L570.71,700.5L567.23,696.5L564.07,691.5L556.84,676.5L553.5,672.55L550.5,670.21L548.5,669.1L544.28,667.5L539.5,666.9L533.81,667.5L531.5,668.22L528.5,669.93L524.18,673.5L522.01,676.5L520.99,678.5L519.24,684.5L519.19,690.5L520.32,697.5L523.15,706.5L528.15,716.5L533.11,724.5L539.58,731.5L546.94,738.5L551.5,741.94L556.5,744.94L560.5,746.83L569.5,749.76L573.5,750.73L579.5,751.7L587.5,751.75L595.5,750.63L601.5,748.78L608.5,745.68L617.5,739.84L624.2,733.5L626.82,730.5L634.78,720.5L639.5,712.83L640.5,712.68L649.21,725.5L657,734.5L663.5,740.71L669.5,744.66L679.5,749.05L686.5,751.02L690.5,751.72L695.5,751.91L699.5,751.79L704.5,751.15L711.5,749.75L719.5,746.89L725.5,743.82L730.5,740.67L736.5,735.62L742.5,729.37L748.84,721.5L752.81,714.5L757.07,705.5L759.66,696.5L760.81,689.5L760.65,684.5L758.7,678.5L757,675.5L755.5,673.65L751.5,670.21L747.5,668.2L745.35,667.5L740.5,666.97L735.5,667.35L733.5,668.04L729.5,670.16L726.27,672.5L724.41,674.5L723.06,676.5L717.69,688.5L712.89,696.5L710.5,699.18L705.5,703.85L702.5,705.69L698.5,706.87L694.5,706.69L692.5,705.92L689.5,703.75L684.21,697.5L677.22,687.5L657.64,657.5L655.5,654.97L653.5,653.2L650.5,651.39L644.5,649.1L639.5,648.73L634.5,649.29Z" fill="#ffffff" fill-rule="evenodd"/>
</svg>
